<?xml version="1.0" standalone="no"?>
<!DOCTYPE svg PUBLIC "-//W3C//DTD SVG 20010904//EN"
 "http://www.w3.org/TR/2001/REC-SVG-20010904/DTD/svg10.dtd">
<svg version="1.0" xmlns="http://www.w3.org/2000/svg"
 width="690.000000pt" height="270.000000pt" viewBox="0 0 690.000000 270.000000"
 preserveAspectRatio="xMidYMid meet">

<g transform="translate(0.000000,270.000000) scale(0.100000,-0.100000)"
fill="#000000" stroke="none">
<path d="M500 2607 c-41 -20 -39 -67 4 -115 20 -22 36 -43 36 -48 0 -5 -25
-32 -57 -61 -47 -42 -56 -54 -45 -64 6 -7 12 -29 12 -49 0 -45 -28 -74 -86
-89 -62 -17 -87 -58 -55 -90 19 -19 19 -20 -9 -31 -61 -25 -120 -106 -120
-164 0 -13 15 -64 34 -113 19 -49 56 -172 81 -272 52 -206 91 -314 177 -484
263 -518 636 -823 1126 -917 57 -11 192 -28 300 -37 168 -14 219 -15 347 -4
248 19 308 28 400 57 73 23 94 26 125 17 27 -7 42 -6 57 4 11 7 55 20 97 28
42 8 86 20 96 25 29 15 36 57 15 80 -15 17 -31 20 -107 20 -49 0 -98 5 -109
10 -14 8 -25 6 -44 -6 -18 -12 -36 -14 -67 -10 -24 4 -80 9 -125 12 -53 4 -83
10 -83 18 0 6 16 31 35 55 40 50 43 66 15 81 -31 17 -84 -12 -150 -80 l-58
-61 -107 26 c-201 50 -371 131 -524 251 -87 69 -264 276 -327 384 -40 69 -98
223 -123 330 -19 84 -40 274 -53 477 -11 192 -11 203 7 223 23 26 43 25 140
-6 121 -38 161 -16 90 52 -31 29 -223 114 -258 114 -7 0 -37 16 -66 35 -30 18
-67 37 -82 40 -20 5 -29 13 -29 26 0 24 -41 45 -106 54 -75 10 -108 33 -108
75 l-1 35 -76 3 c-97 4 -117 19 -99 80 15 47 2 78 -36 92 -33 13 -54 12 -84
-3z m91 -28 c11 -22 6 -25 -58 -32 -49 -6 -53 3 -19 38 27 27 60 24 77 -6z
m114 -179 c-3 -5 -17 -10 -31 -10 -14 0 -22 4 -19 10 3 6 17 10 31 10 14 0 22
-4 19 -10z m89 -110 c7 -7 5 -10 -7 -10 -14 0 -16 -6 -11 -25 5 -22 3 -25 -18
-25 -37 0 -99 75 -83 101 6 9 101 -23 119 -41z m-124 -25 c11 -13 6 -15 -36
-15 -27 0 -60 -2 -74 -5 -14 -3 0 4 30 15 68 23 65 23 80 5z m216 -49 c-4 -15
0 -28 9 -36 8 -7 15 -17 15 -23 0 -5 -9 -2 -19 7 -18 17 -19 16 -26 -12 -10
-45 -32 -48 -69 -7 -37 40 -46 43 -46 15 0 -17 -3 -19 -19 -10 -29 15 -120 12
-180 -6 -29 -8 -55 -13 -58 -11 -5 6 52 23 202 61 55 14 114 30 130 35 54 17
68 14 61 -13z m354 -81 c18 -22 5 -59 -33 -92 -40 -35 -203 -78 -347 -91 -82
-8 -109 -16 -196 -56 -109 -50 -137 -56 -127 -29 5 14 1 15 -27 10 -18 -4 -38
-7 -45 -7 -7 0 -15 -9 -18 -20 -7 -28 -49 -26 -86 6 -34 28 -40 51 -16 60 17
7 11 24 -9 24 -33 0 -51 -29 -56 -92 l-5 -63 -18 32 c-18 33 -22 69 -11 98 8
20 68 51 117 60 33 7 37 5 37 -14 0 -13 12 -29 33 -41 56 -34 117 -20 69 16
-13 11 -14 15 -4 22 9 6 6 12 -13 20 -35 16 -25 28 30 37 25 3 114 26 198 51
246 72 497 105 527 69z m-810 -21 c0 -6 -65 -34 -81 -34 -20 0 -3 11 38 25 46
17 43 16 43 9z m1012 -71 c18 -16 24 -33 11 -33 -5 1 -21 12 -38 25 -25 21
-27 25 -11 25 11 0 28 -7 38 -17z m-272 -102 c12 -23 13 -112 1 -161 -6 -27
-4 -39 6 -49 11 -10 14 -35 11 -102 -1 -49 1 -89 6 -89 5 0 6 -25 4 -55 -4
-41 -1 -55 9 -55 14 0 16 -10 7 -34 -3 -8 -12 -12 -20 -9 -8 3 -14 -1 -14 -8
0 -8 -3 -25 -7 -39 -6 -25 -6 -25 17 4 26 32 33 26 44 -39 11 -58 55 -217 67
-239 8 -14 6 -22 -10 -37 -26 -25 -27 -39 -1 -39 11 0 30 -16 45 -37 14 -21
25 -31 25 -23 0 22 68 -49 100 -105 16 -28 52 -77 80 -109 27 -31 50 -66 50
-76 0 -49 105 -130 221 -170 54 -19 88 -38 114 -65 43 -42 90 -65 136 -65 18
0 37 -7 43 -16 7 -8 43 -24 80 -35 78 -21 86 -26 66 -39 -33 -21 -131 -2 -255
49 -103 43 -134 47 -189 22 -45 -19 -58 -17 -34 7 22 22 2 12 -28 -13 -16 -14
-32 -25 -36 -25 -4 0 -18 15 -32 32 -18 24 -32 32 -51 30 -35 -3 -68 16 -61
34 3 8 1 14 -5 14 -6 0 -6 8 1 21 7 11 10 22 8 23 -2 1 -38 7 -82 13 -63 9
-84 16 -104 37 -31 31 -21 46 26 39 27 -5 31 -8 20 -20 -9 -11 -9 -16 3 -24
21 -13 77 -22 96 -15 13 6 4 19 -48 72 -53 55 -83 75 -179 121 -63 30 -144 69
-180 86 -39 19 -58 33 -48 35 9 2 43 -11 75 -27 65 -35 88 -38 97 -15 13 33
-37 96 -85 108 -15 3 -46 22 -69 41 -35 30 -39 35 -20 35 32 0 60 18 60 39 0
18 -80 125 -87 117 -3 -2 3 -18 12 -36 9 -17 14 -39 12 -48 -3 -12 -9 -7 -20
18 -28 64 -86 93 -87 43 -1 -17 -1 -17 -14 0 -8 10 -20 15 -30 11 -25 -10 -46
15 -46 53 0 28 -10 45 -52 90 -29 31 -43 51 -31 44 12 -6 33 -11 47 -11 32 0
35 26 7 62 -12 15 -18 33 -15 45 3 12 0 24 -7 28 -9 6 -11 2 -6 -14 4 -16 2
-21 -8 -18 -7 3 -23 -5 -36 -19 -38 -41 -53 -32 -46 27 5 37 3 49 -6 46 -7 -2
-13 -24 -15 -49 -3 -40 -6 -45 -23 -41 -30 8 -23 -9 26 -57 l44 -43 -26 -14
c-36 -19 -47 -12 -61 35 -7 22 -25 52 -41 65 -23 19 -27 27 -18 36 9 10 3 20
-26 48 l-39 35 28 29 c33 34 45 36 70 8 17 -19 18 -21 1 -30 -9 -6 -17 -18
-17 -27 0 -21 27 -62 41 -62 10 0 13 99 3 125 -8 21 -56 45 -89 45 -33 0 -58
46 -34 64 9 6 21 21 27 32 7 14 25 24 51 28 55 8 65 31 39 83 -27 54 -19 73
29 73 46 0 107 34 99 55 -4 12 4 15 35 15 27 0 42 5 46 16 6 15 31 15 98 -2
17 -4 16 -2 -5 15 l-25 20 28 10 c16 6 53 14 83 17 30 4 57 11 60 15 10 17 53
9 64 -10z m-820 -125 c0 -11 -19 -15 -25 -6 -3 5 1 10 9 10 9 0 16 -2 16 -4z
m254 -62 c39 -15 -4 -62 -44 -49 -26 8 -26 29 0 22 31 -8 24 1 -12 17 l-33 14
37 1 c20 1 43 -2 52 -5z m-124 -43 c0 -19 -22 -23 -38 -7 -15 15 -14 16 11 16
15 0 27 -4 27 -9z m40 -31 c0 -5 -2 -10 -4 -10 -3 0 -8 5 -11 10 -3 6 -1 10 4
10 6 0 11 -4 11 -10z m-30 -20 c0 -5 -4 -10 -10 -10 -5 0 -10 5 -10 10 0 6 5
10 10 10 6 0 10 -4 10 -10z m-10 -70 c0 -13 -20 -13 -40 0 -12 8 -9 10 13 10
15 0 27 -4 27 -10z m-111 -56 c3 -16 1 -17 -13 -5 -19 16 -21 34 -3 29 6 -3
14 -13 16 -24z m101 11 c8 -9 8 -15 2 -15 -18 0 -42 12 -42 21 0 14 26 10 40
-6z m-15 -35 c3 -5 2 -10 -4 -10 -5 0 -13 5 -16 10 -3 6 -2 10 4 10 5 0 13 -4
16 -10z m-19 -170 c4 -38 48 -165 67 -190 6 -8 0 -5 -15 8 -14 13 -52 80 -83
148 -56 123 -67 169 -25 103 19 -29 21 -30 16 -9 -3 14 -8 36 -11 50 -4 14 6
3 21 -25 15 -27 28 -66 30 -85z m159 -50 c3 -5 -1 -10 -10 -10 -9 0 -13 5 -10
10 3 6 8 10 10 10 2 0 7 -4 10 -10z m140 -10 c3 -5 1 -10 -4 -10 -6 0 -11 5
-11 10 0 6 2 10 4 10 3 0 8 -4 11 -10z m92 -129 c6 -29 18 -58 26 -64 8 -7 22
-24 32 -39 16 -26 16 -28 1 -28 -9 0 -56 20 -104 44 -62 31 -92 52 -100 71
-19 40 -6 46 50 24 63 -25 82 -20 68 16 -13 34 -13 38 2 33 7 -3 18 -28 25
-57z m-350 -23 c11 -24 28 -59 37 -78 9 -20 35 -58 57 -85 22 -27 47 -62 56
-78 8 -16 26 -39 39 -51 13 -11 34 -48 47 -81 18 -47 30 -64 57 -77 18 -9 43
-33 54 -53 11 -20 31 -38 43 -41 13 -4 23 -12 23 -18 0 -16 60 -72 86 -80 24
-7 80 -63 71 -72 -31 -31 -240 142 -318 264 -23 37 -87 135 -141 218 -87 135
-116 189 -149 273 -16 40 14 8 38 -41z m218 -138 c3 -5 2 -10 -4 -10 -5 0 -13
5 -16 10 -3 6 -2 10 4 10 5 0 13 -4 16 -10z m340 0 c3 -5 -1 -10 -9 -10 -8 0
-18 5 -21 10 -3 6 1 10 9 10 8 0 18 -4 21 -10z m-105 -20 l44 -12 -24 -19
c-21 -16 -23 -20 -10 -29 13 -8 12 -10 -2 -10 -26 0 -22 -14 7 -30 14 -7 25
-19 25 -25 0 -7 9 -20 20 -30 12 -10 19 -24 16 -31 -3 -7 2 -18 10 -25 8 -6
13 -14 10 -16 -5 -5 -174 86 -182 98 -7 12 2 11 29 -2 16 -7 14 -3 -8 17 -16
15 -29 33 -27 39 1 7 -5 18 -13 25 -17 14 -21 35 -5 25 6 -3 10 1 10 10 0 11
5 15 14 12 11 -4 13 -1 9 10 -5 11 -1 14 13 10 10 -3 39 -11 64 -17z m-159
-37 c13 -15 12 -15 -8 -4 -24 12 -29 21 -14 21 5 0 15 -7 22 -17z m-80 -40
c13 -16 12 -17 -3 -4 -10 7 -18 15 -18 17 0 8 8 3 21 -13z m266 -169 c-3 -3
-12 -4 -19 -1 -8 3 -5 6 6 6 11 1 17 -2 13 -5z m163 -20 l25 -15 -30 6 c-16 4
-34 11 -39 16 -16 15 16 10 44 -7z m-100 -4 c0 -5 -7 -7 -15 -4 -8 4 -15 8
-15 10 0 2 7 4 15 4 8 0 15 -4 15 -10z m65 -49 c38 -17 46 -24 35 -31 -45 -29
-190 12 -190 53 0 16 101 1 155 -22z m115 -10 c63 -28 70 -48 12 -32 -33 10
-81 41 -82 54 0 10 1 10 70 -22z m95 5 l40 -15 -35 0 c-19 0 -51 9 -70 20
l-35 20 30 -5 c17 -2 48 -11 70 -20z m360 -36 c3 -5 1 -10 -4 -10 -6 0 -11 5
-11 10 0 6 2 10 4 10 3 0 8 -4 11 -10z m-379 -47 c-8 -8 -56 6 -56 17 0 5 13
5 31 -2 16 -6 28 -13 25 -15z m-15 -59 c17 -8 29 -18 26 -20 -8 -8 -56 7 -68
22 -16 19 3 19 42 -2z m-74 -10 c-3 -3 -12 -4 -19 -1 -8 3 -5 6 6 6 11 1 17
-2 13 -5z m-20 -70 c-3 -3 -12 -4 -19 -1 -8 3 -5 6 6 6 11 1 17 -2 13 -5z
m136 -1 c-7 -2 -19 -2 -25 0 -7 3 -2 5 12 5 14 0 19 -2 13 -5z m77 -23 c0 -13
-11 -13 -30 0 -12 8 -11 10 8 10 12 0 22 -4 22 -10z m160 -10 c0 -5 -9 -10
-21 -10 -11 0 -17 5 -14 10 3 6 13 10 21 10 8 0 14 -4 14 -10z m890 -10 c0 -5
-4 -10 -10 -10 -5 0 -10 5 -10 10 0 6 5 10 10 10 6 0 10 -4 10 -10z m-1147
-96 c62 -30 98 -42 116 -39 18 4 21 3 8 -3 -13 -6 9 -18 90 -49 115 -45 273
-74 403 -73 76 1 264 -5 300 -9 23 -2 24 -3 5 -11 -11 -5 -82 -9 -158 -9 -142
-1 -430 33 -551 64 -80 21 -264 98 -323 134 -65 42 -51 39 43 -8 44 -22 90
-42 104 -46 14 -4 -15 14 -64 39 -159 80 -136 89 27 10z m7 36 c0 -5 -4 -10
-9 -10 -6 0 -13 5 -16 10 -3 6 1 10 9 10 9 0 16 -4 16 -10z m638 -46 c4 -25
-22 -49 -40 -38 -7 5 -21 7 -30 6 -26 -5 -22 14 9 38 32 25 57 23 61 -6z m-78
12 c0 -2 -7 -7 -16 -10 -8 -3 -12 -2 -9 4 6 10 25 14 25 6z m150 -15 c0 -5
-10 -16 -22 -25 l-23 -17 25 7 c24 6 24 5 8 -12 -17 -17 -18 -17 -33 1 -13 18
-12 22 6 38 23 19 39 22 39 8z m570 -9 c46 -17 -1 -24 -116 -17 -106 7 -133
15 -101 29 17 8 188 -1 217 -12z m385 -2 c14 -6 -3 -8 -50 -8 -64 1 -66 2 -25
8 25 4 47 7 50 8 3 0 14 -3 25 -8z m-905 -30 c-24 -15 -37 -11 -16 5 11 8 22
12 25 9 3 -3 -1 -9 -9 -14z m-466 -29 c49 -11 93 -24 99 -30 15 -15 -4 -14
-78 4 -60 14 -140 44 -119 45 5 0 50 -9 98 -19z m486 4 c-7 -9 -15 -13 -17
-11 -7 7 7 26 19 26 6 0 6 -6 -2 -15z m45 5 c-3 -5 -11 -10 -16 -10 -6 0 -7 5
-4 10 3 6 11 10 16 10 6 0 7 -4 4 -10z m36 -11 c-13 -11 -27 -17 -30 -13 -7 7
28 34 43 34 6 -1 0 -10 -13 -21z"/>
<path d="M1007 2123 c-4 -3 -7 -17 -7 -30 0 -18 5 -23 25 -23 17 0 25 5 25 18
0 28 -28 51 -43 35z"/>
<path d="M1102 2113 c-7 -2 -17 -14 -24 -26 -11 -21 -10 -21 9 -4 11 9 25 17
31 17 7 0 12 5 12 10 0 11 -7 12 -28 3z"/>
<path d="M773 2059 c-18 -5 -35 -15 -39 -21 -5 -8 -2 -9 12 -3 10 5 37 10 59
11 70 2 76 4 70 14 -7 12 -58 12 -102 -1z"/>
<path d="M642 1998 c3 -7 17 -15 33 -16 25 -3 27 -2 16 12 -16 19 -55 22 -49
4z"/>
<path d="M585 1959 c-4 -6 -5 -11 -4 -12 11 -7 80 -37 84 -37 12 0 3 22 -15
40 -22 22 -55 26 -65 9z"/>
<path d="M1110 1831 c-20 -38 -24 -106 -7 -120 13 -10 18 -9 31 11 18 28 34
103 17 78 -6 -8 -11 -23 -11 -32 0 -10 -5 -18 -11 -18 -6 0 -8 8 -5 18 15 49
17 70 7 76 -5 4 -15 -2 -21 -13z"/>
<path d="M774 1705 c3 -9 6 -24 6 -34 0 -9 13 -24 29 -34 36 -21 47 -22 31 -2
-6 8 -9 19 -5 25 3 5 2 10 -3 10 -5 0 -22 12 -37 26 -18 17 -26 20 -21 9z"/>
<path d="M832 1711 c4 -13 18 -16 19 -4 0 4 -5 9 -11 12 -7 2 -11 -2 -8 -8z"/>
<path d="M741 1626 c8 -8 109 -46 109 -40 0 7 -82 44 -99 44 -8 0 -12 -2 -10
-4z"/>
<path d="M722 1589 c13 -20 95 -56 105 -45 8 8 -79 66 -100 66 -18 0 -18 -2
-5 -21z"/>
<path d="M695 1550 c30 -32 80 -45 54 -14 -13 15 -62 44 -75 44 -4 0 5 -13 21
-30z"/>
<path d="M670 1534 c17 -19 5 -30 -15 -14 -31 26 -23 3 12 -34 31 -33 38 -36
50 -23 21 21 8 53 -29 71 -26 14 -28 14 -18 0z"/>
<path d="M770 1486 c0 -2 8 -10 18 -17 15 -13 16 -12 3 4 -13 16 -21 21 -21
13z"/>
<path d="M1047 1443 c-7 -39 2 -83 26 -116 15 -22 22 -26 28 -15 12 19 -1 111
-17 121 -8 4 -14 15 -14 22 0 26 -17 16 -23 -12z"/>
<path d="M1171 1454 c0 -11 3 -14 6 -6 3 7 2 16 -1 19 -3 4 -6 -2 -5 -13z"/>
<path d="M830 1429 c0 -22 28 -100 44 -122 17 -22 56 -15 74 13 10 16 5 26
-35 70 -25 28 -47 49 -50 46 -2 -2 3 -21 12 -41 23 -56 10 -55 -19 2 -14 26
-25 41 -26 32z"/>
<path d="M751 1404 c0 -11 3 -14 6 -6 3 7 2 16 -1 19 -3 4 -6 -2 -5 -13z"/>
<path d="M1248 1104 c-3 -5 -1 -20 5 -34 8 -20 11 -22 14 -8 5 20 -12 55 -19
42z"/>
<path d="M1301 944 c0 -11 3 -14 6 -6 3 7 2 16 -1 19 -3 4 -6 -2 -5 -13z"/>
<path d="M1380 842 c0 -12 19 -26 26 -19 2 2 -2 10 -11 17 -9 8 -15 8 -15 2z"/>
<path d="M1450 747 c0 -14 28 -63 44 -76 13 -11 16 -11 16 3 0 16 -59 88 -60
73z"/>
<path d="M3385 2497 c-55 -29 -115 -58 -132 -65 -51 -21 -45 -53 14 -84 28
-14 56 -38 68 -58 19 -34 20 -53 23 -572 3 -599 4 -586 -63 -608 -40 -13 -57
-37 -45 -61 8 -14 33 -15 232 -11 211 4 237 8 238 34 0 16 -32 36 -70 42 -59
9 -95 30 -108 63 -8 20 -13 228 -15 688 -2 364 -7 666 -11 673 -11 19 -24 15
-131 -41z"/>
<path d="M5830 2520 c-25 -16 -74 -42 -110 -57 -79 -33 -90 -40 -90 -64 0 -13
18 -27 55 -45 95 -44 90 -8 90 -629 0 -605 3 -576 -72 -613 -48 -23 -63 -46
-42 -67 14 -14 37 -15 190 -7 96 5 197 9 224 8 46 -1 50 1 50 23 0 29 -14 37
-88 51 -42 9 -62 18 -73 35 -20 31 -31 165 -15 202 13 32 92 86 112 78 8 -4
37 -43 66 -88 63 -100 216 -293 244 -308 27 -14 282 -1 305 16 12 8 15 20 11
37 -6 22 -13 26 -61 31 -72 7 -108 27 -190 106 -67 65 -197 233 -231 300 -17
33 -16 33 12 63 46 49 144 119 201 145 29 13 83 27 119 33 62 8 82 20 83 46 0
26 -36 32 -257 37 l-233 6 0 -29 c0 -26 5 -30 54 -44 30 -9 58 -21 61 -26 10
-17 -24 -53 -135 -146 -129 -107 -148 -120 -160 -108 -6 6 -11 221 -12 524
l-3 515 -30 2 c-19 1 -46 -8 -75 -27z"/>
<path d="M2082 2428 c-24 -24 -12 -46 41 -76 98 -55 92 -15 95 -600 2 -335 -1
-526 -8 -551 -14 -53 -37 -79 -85 -95 -51 -18 -67 -42 -41 -62 12 -8 28 -11
40 -7 12 3 126 6 254 5 206 -1 234 0 239 15 12 30 -12 46 -96 63 -56 11 -88
23 -97 35 -11 15 -14 76 -14 283 l0 265 130 -6 c71 -4 140 -12 153 -18 28 -13
54 -53 71 -112 10 -37 15 -42 41 -42 l30 0 8 175 c4 96 9 191 10 210 2 34 1
35 -33 35 -35 0 -35 0 -48 -63 -9 -39 -20 -66 -31 -72 -10 -5 -88 -12 -175
-16 l-156 -7 2 269 3 269 150 3 c255 5 296 -8 351 -112 35 -65 50 -79 74 -66
13 7 18 32 24 117 3 59 9 120 12 135 l6 26 -433 -1 c-239 -1 -450 1 -469 6
-24 5 -40 3 -48 -5z"/>
<path d="M5104 1880 c-136 -20 -234 -116 -234 -228 0 -13 5 -44 12 -69 17 -71
66 -111 230 -192 80 -40 155 -85 171 -101 37 -41 37 -89 -2 -132 -29 -33 -30
-33 -123 -33 -122 1 -171 25 -244 120 -18 25 -34 35 -48 33 -19 -3 -21 -10
-24 -95 -3 -88 -2 -93 21 -108 64 -42 312 -59 419 -29 67 19 143 79 164 131
21 50 18 149 -7 199 -27 57 -66 85 -227 161 -166 79 -192 100 -192 159 0 68
39 94 137 94 74 0 133 -29 181 -88 20 -26 42 -50 47 -54 10 -8 45 -1 57 11 9
9 -31 184 -45 193 -36 23 -216 40 -293 28z"/>
<path d="M4175 1865 c-77 -22 -210 -92 -239 -126 -66 -78 10 -150 110 -103 22
11 46 37 70 75 42 70 63 83 116 75 87 -14 118 -61 118 -180 0 -82 -10 -101
-58 -112 -257 -57 -369 -111 -411 -198 -38 -77 -18 -162 52 -223 67 -59 190
-59 326 0 47 21 90 37 97 37 6 0 19 -11 28 -25 24 -36 71 -58 109 -50 46 10
166 75 177 96 20 36 2 49 -69 49 -39 0 -72 5 -79 12 -9 9 -12 83 -12 272 0
144 -5 277 -10 296 -12 43 -62 93 -109 109 -45 15 -154 13 -216 -4z m173 -562
l-3 -116 -40 -21 c-31 -16 -58 -21 -123 -21 -79 0 -85 1 -108 28 -32 37 -34
112 -3 151 36 46 156 94 237 95 l43 1 -3 -117z"/>
<path d="M4081 836 c-19 -11 -21 -14 -7 -19 13 -5 16 -25 16 -126 0 -131 0
-130 72 -131 66 0 113 95 68 140 -19 19 -29 21 -66 16 l-44 -6 0 70 c0 39 -3
70 -7 70 -5 -1 -19 -7 -32 -14z m109 -146 c44 -24 26 -110 -23 -110 -33 0 -47
19 -47 62 0 49 30 70 70 48z"/>
<path d="M4504 836 c-18 -14 -18 -15 -1 -21 12 -5 17 -18 17 -51 l0 -44 -44 0
c-36 0 -48 -5 -65 -26 -57 -72 11 -166 89 -124 13 7 19 6 24 -5 4 -12 10 -13
31 -3 28 12 33 28 10 28 -13 0 -15 21 -15 130 0 138 -4 147 -46 116z m4 -148
c7 -7 12 -29 12 -50 0 -48 -29 -68 -66 -44 -49 33 -39 106 14 106 16 0 33 -5
40 -12z"/>
<path d="M5215 837 c-12 -10 -14 -16 -7 -21 17 -10 16 -228 0 -244 -9 -9 -1
-12 38 -12 43 1 47 2 32 14 -16 11 -18 31 -18 145 0 138 -4 148 -45 118z"/>
<path d="M6531 731 c-15 -15 -20 -26 -13 -29 7 -2 12 -25 12 -53 0 -66 13 -89
50 -89 16 0 32 5 35 10 3 6 -5 10 -19 10 -21 0 -26 6 -31 34 -11 57 -3 81 28
84 34 4 36 22 2 22 -15 0 -25 6 -25 14 0 25 -14 24 -39 -3z"/>
<path d="M3953 722 c-31 -5 -63 -49 -63 -87 0 -65 81 -99 131 -54 21 18 21 20
4 14 -44 -16 -63 -16 -79 0 -24 25 -16 38 34 52 56 16 63 24 45 50 -16 23 -38
30 -72 25z m21 -18 c34 -13 0 -54 -44 -54 -10 0 -3 28 13 48 11 14 10 14 31 6z"/>
<path d="M4653 715 c-34 -14 -43 -32 -43 -81 0 -50 31 -78 82 -71 36 5 74 25
65 34 -2 2 -17 -1 -32 -7 -33 -13 -62 -5 -75 20 -9 16 -3 21 43 36 71 23 71
23 47 49 -28 30 -50 35 -87 20z m47 -20 c16 -19 6 -31 -32 -40 -32 -8 -39 13
-12 39 19 20 28 20 44 1z"/>
<path d="M5074 722 c-31 -4 -54 -34 -61 -75 -4 -29 -1 -40 20 -61 30 -30 64
-33 108 -10 40 20 33 26 -14 12 -34 -10 -40 -9 -60 10 -26 26 -18 35 46 52 52
14 54 16 32 47 -16 22 -38 30 -71 25z m32 -26 c22 -17 13 -30 -28 -40 -23 -5
-28 -3 -28 12 0 17 18 42 30 42 3 0 15 -6 26 -14z"/>
<path d="M5537 719 c-15 -9 -16 -12 -2 -25 19 -20 22 -203 3 -222 -9 -9 -1
-12 38 -11 42 0 46 2 27 11 -18 9 -23 20 -23 50 0 36 2 38 31 38 43 0 69 16
85 55 27 65 -10 111 -81 102 -27 -4 -45 -3 -45 3 0 13 -10 12 -33 -1z m117
-38 c21 -23 18 -80 -5 -94 -9 -5 -28 -7 -42 -3 -24 6 -27 11 -27 49 0 65 37
89 74 48z"/>
<path d="M6143 715 c-34 -14 -43 -32 -43 -81 0 -51 31 -78 83 -71 22 3 47 13
56 23 15 16 15 16 -2 10 -45 -15 -63 -16 -81 -3 -24 18 -16 42 18 51 14 3 37
11 52 16 l27 11 -22 23 c-29 31 -51 36 -88 21z m47 -20 c16 -19 6 -31 -32 -40
-32 -8 -39 13 -12 39 19 20 28 20 44 1z"/>
<path d="M3570 711 c0 -6 5 -13 10 -16 6 -4 24 -33 40 -65 16 -32 34 -61 38
-64 5 -3 17 12 27 34 10 22 21 40 25 40 4 0 15 -18 25 -40 10 -22 22 -40 26
-40 4 0 21 28 38 62 17 34 39 70 48 80 15 17 14 18 -28 18 -35 -1 -40 -3 -27
-11 17 -9 17 -13 2 -47 -23 -57 -30 -58 -50 -7 -15 40 -15 48 -3 56 9 6 0 9
-30 9 -44 0 -44 0 -26 -20 18 -20 18 -22 1 -58 l-18 -37 -20 39 c-16 31 -18
44 -9 58 10 16 7 18 -29 18 -22 0 -40 -4 -40 -9z"/>
<path d="M4790 715 c0 -3 8 -18 19 -33 10 -15 31 -49 46 -75 15 -27 31 -45 35
-40 4 4 26 41 48 81 l41 72 -29 0 c-22 0 -28 -4 -23 -16 6 -15 -25 -94 -37
-94 -3 0 -15 19 -27 43 -19 40 -20 44 -4 55 13 9 8 11 -26 11 -24 1 -43 -1
-43 -4z"/>
<path d="M5346 699 c-55 -43 -24 -139 45 -139 58 0 98 35 99 86 0 66 -87 98
-144 53z m93 -13 c16 -20 17 -72 1 -91 -42 -51 -113 24 -80 86 13 23 62 26 79
5z"/>
<path d="M5756 707 c-17 -12 -17 -14 -2 -20 19 -8 23 -96 4 -115 -9 -9 -1 -12
38 -11 43 0 46 2 26 11 -20 10 -23 18 -20 62 3 45 6 52 31 61 24 8 31 6 43
-10 21 -28 18 -102 -3 -114 -14 -8 -7 -10 31 -11 43 0 47 2 32 13 -13 10 -17
24 -14 62 3 44 6 51 31 60 24 8 31 6 43 -10 17 -23 18 -97 2 -113 -9 -9 -2
-12 33 -12 39 1 42 2 27 14 -13 10 -18 28 -18 68 0 30 -5 59 -12 66 -15 15
-72 16 -98 2 -13 -7 -21 -7 -25 0 -8 13 -61 13 -86 0 -13 -7 -19 -7 -19 0 0
14 -23 13 -44 -3z"/>
<path d="M6296 707 c-17 -12 -17 -14 -2 -20 19 -8 23 -96 4 -115 -9 -9 -2 -12
33 -12 39 1 42 2 27 14 -26 19 -25 102 1 116 27 14 37 13 55 -6 19 -18 22 -94
4 -112 -9 -9 -2 -12 33 -12 39 1 42 2 27 14 -13 9 -18 27 -18 60 0 64 -13 86
-51 86 -17 0 -39 -5 -50 -10 -13 -7 -19 -7 -19 0 0 14 -23 13 -44 -3z"/>
<path d="M6673 594 c-3 -8 -1 -20 6 -27 16 -16 14 -37 -6 -59 -9 -10 -11 -18
-5 -18 17 0 52 50 52 74 0 38 -35 61 -47 30z"/>
<path d="M4440 460 c-12 -7 -12 -12 -2 -22 6 -6 12 -32 12 -56 0 -42 -1 -44
-25 -38 -58 15 -117 -53 -98 -111 14 -42 54 -61 95 -45 23 8 34 9 39 1 7 -13
49 -3 49 12 0 5 -4 9 -10 9 -6 0 -10 50 -10 130 0 117 -2 130 -17 130 -10 0
-25 -5 -33 -10z m-15 -140 c24 -9 26 -14 23 -57 -3 -43 -6 -48 -29 -51 -15 -2
-34 4 -43 13 -22 22 -21 81 2 94 21 13 16 13 47 1z"/>
<path d="M6137 433 c-14 -13 -6 -33 13 -33 13 0 20 7 20 20 0 19 -20 27 -33
13z"/>
<path d="M5436 354 c-13 -19 -15 -29 -7 -37 6 -6 11 -37 11 -68 0 -50 3 -59
21 -64 23 -8 69 1 69 13 0 4 -12 8 -27 7 -27 0 -28 2 -31 58 -3 55 -2 57 23
57 14 0 25 5 25 10 0 6 -11 10 -25 10 -18 0 -25 5 -25 20 0 27 -11 25 -34 -6z"/>
<path d="M5979 357 c-13 -18 -14 -36 -9 -91 9 -82 30 -101 87 -79 15 6 13 8
-12 13 -29 5 -30 7 -33 63 -3 55 -2 57 23 57 14 0 25 5 25 10 0 6 -11 10 -25
10 -18 0 -25 5 -25 20 0 26 -11 25 -31 -3z"/>
<path d="M3893 335 c-23 -10 -33 -10 -36 -2 -3 9 -11 8 -33 -1 -25 -12 -26
-15 -11 -23 20 -12 24 -98 5 -117 -9 -9 -3 -12 30 -12 42 0 56 13 27 24 -10 4
-15 20 -15 51 0 39 4 47 26 57 39 18 58 0 62 -56 2 -27 -2 -54 -9 -62 -10 -12
-5 -14 31 -14 41 0 42 1 27 18 -11 12 -17 36 -17 70 0 41 -4 54 -22 66 -27 19
-25 19 -65 1z"/>
<path d="M4082 340 c-13 -6 -29 -25 -37 -44 -36 -86 56 -150 130 -91 19 16 19
16 -7 11 -14 -3 -33 -9 -41 -12 -17 -6 -61 32 -52 45 3 5 27 14 55 21 28 7 52
15 54 19 6 9 -16 36 -41 49 -25 14 -30 14 -61 2z m46 -22 c18 -18 15 -25 -19
-37 -40 -14 -39 -14 -39 7 0 20 18 42 35 42 6 0 16 -5 23 -12z"/>
<path d="M4561 331 c-20 -15 -21 -19 -7 -24 18 -7 23 -91 6 -102 -23 -14 -7
-25 38 -25 l47 0 -23 18 c-19 15 -23 26 -20 63 3 41 5 44 33 44 20 1 31 6 33
18 3 12 -3 17 -22 17 -14 0 -28 -5 -31 -11 -5 -6 -11 -5 -18 5 -11 14 -15 13
-36 -3z"/>
<path d="M4920 340 c-12 -7 -12 -12 -2 -22 16 -16 17 -209 0 -226 -9 -9 -1
-12 38 -11 47 0 48 1 27 16 -17 11 -23 25 -23 52 0 36 1 37 33 33 68 -8 120
76 82 134 -15 24 -22 26 -66 22 -27 -3 -52 -1 -55 3 -7 11 -15 11 -34 -1z
m119 -34 c17 -20 10 -87 -11 -99 -12 -8 -24 -7 -42 1 -21 9 -26 18 -26 50 0
21 5 43 12 50 16 16 53 15 67 -2z"/>
<path d="M5285 340 c-12 -4 -27 -15 -34 -24 -12 -14 -11 -16 4 -16 10 0 23 7
30 17 17 23 47 10 43 -19 -2 -14 -14 -25 -35 -32 -18 -6 -40 -18 -49 -27 -34
-35 22 -77 65 -50 9 6 21 5 32 -2 15 -9 22 -8 36 6 16 16 16 17 0 17 -14 0
-17 10 -17 60 0 48 -4 61 -19 70 -23 12 -29 12 -56 0z m45 -104 c0 -16 -7 -27
-20 -31 -41 -13 -57 29 -17 45 33 13 37 12 37 -14z"/>
<path d="M5713 335 c-18 -8 -33 -19 -33 -25 0 -15 21 -12 41 6 22 19 39 11 39
-19 0 -18 -10 -26 -42 -37 -47 -16 -61 -47 -33 -70 12 -10 24 -11 50 -3 22 7
37 7 43 1 6 -6 18 -5 33 3 l23 12 -22 8 c-20 8 -22 15 -20 64 3 75 -15 88 -79
60z m47 -100 c0 -30 -24 -43 -46 -24 -14 12 -14 15 6 31 30 24 40 23 40 -7z"/>
<path d="M6126 333 c-25 -13 -27 -17 -13 -25 20 -11 24 -97 5 -116 -9 -9 -3
-12 30 -12 41 0 56 13 27 23 -10 4 -15 26 -17 76 l-3 69 -29 -15z"/>
<path d="M6241 334 c-21 -15 -21 -18 -7 -26 19 -11 23 -97 4 -116 -9 -9 -3
-12 30 -12 42 0 56 13 26 24 -11 4 -14 18 -12 53 3 42 6 49 31 58 24 8 31 6
43 -10 17 -23 18 -97 2 -113 -9 -9 -2 -12 33 -12 39 1 42 2 27 14 -13 10 -18
27 -18 64 0 47 2 52 27 58 41 11 58 -6 61 -65 2 -31 -1 -51 -7 -51 -6 0 -11
-4 -11 -10 0 -5 18 -10 40 -10 22 0 40 5 40 10 0 6 -7 10 -15 10 -12 0 -15 13
-15 60 0 52 -3 62 -25 76 -20 13 -30 14 -61 4 -29 -10 -41 -10 -60 1 -20 10
-30 10 -57 -3 -29 -14 -35 -14 -43 -2 -8 13 -12 12 -33 -2z"/>
<path d="M6623 340 c-50 -20 -60 -105 -17 -139 32 -25 55 -26 95 -5 39 19 31
30 -11 15 -38 -13 -70 0 -70 28 0 14 12 22 50 31 28 7 52 15 54 19 8 12 -29
50 -54 55 -14 3 -35 1 -47 -4z m41 -16 c26 -10 18 -31 -16 -43 -38 -14 -45 -9
-30 24 12 26 20 29 46 19z"/>
<path d="M3622 320 c-66 -62 -16 -152 74 -135 63 11 92 80 54 128 -27 35 -94
38 -128 7z m102 -32 c13 -38 0 -77 -30 -84 -34 -9 -64 20 -64 62 0 63 73 80
94 22z"/>
<path d="M4725 315 c-16 -15 -25 -36 -25 -55 0 -38 39 -80 75 -80 33 0 81 24
89 45 14 37 6 84 -16 99 -35 25 -94 20 -123 -9z m105 -25 c14 -27 12 -51 -7
-72 -36 -40 -83 -10 -83 53 0 32 4 41 23 48 26 10 52 -1 67 -29z"/>
</g>
</svg>
